<svg xmlns="http://www.w3.org/2000/svg" xmlns:xlink="http://www.w3.org/1999/xlink" width="500" zoomAndPan="magnify" viewBox="0 0 375 374.999991" height="500" preserveAspectRatio="xMidYMid meet" version="1.2"><defs><clipPath id="1d45527ca5"><path d="M 9 4 L 180 4 L 180 295 L 9 295 Z M 9 4 "/></clipPath><clipPath id="844862d144"><path d="M 0 34.183594 L 145.503906 -5.234375 L 220.613281 272.023438 L 75.109375 311.441406 Z M 0 34.183594 "/></clipPath><clipPath id="369ca124fb"><path d="M 0 34.183594 L 145.503906 -5.234375 L 220.613281 272.023438 L 75.109375 311.441406 Z M 0 34.183594 "/></clipPath><clipPath id="1c17d37ecd"><path d="M 0 34.183594 L 145.503906 -5.234375 L 220.613281 272.023438 L 75.109375 311.441406 Z M 0 34.183594 "/></clipPath><clipPath id="1258877166"><path d="M 13 8 L 176 8 L 176 211 L 13 211 Z M 13 8 "/></clipPath><clipPath id="9e9ba137df"><path d="M 0 34.183594 L 145.503906 -5.234375 L 220.613281 272.023438 L 75.109375 311.441406 Z M 0 34.183594 "/></clipPath><clipPath id="a731184669"><path d="M 0 34.183594 L 145.503906 -5.234375 L 220.613281 272.023438 L 75.109375 311.441406 Z M 0 34.183594 "/></clipPath><clipPath id="80e22e1143"><path d="M 0 34.183594 L 145.503906 -5.234375 L 220.613281 272.023438 L 75.109375 311.441406 Z M 0 34.183594 "/></clipPath><clipPath id="3947110d0a"><path d="M 118 219 L 159 219 L 159 292 L 118 292 Z M 118 219 "/></clipPath><clipPath id="d75bd0acb5"><path d="M 0 34.183594 L 145.503906 -5.234375 L 220.613281 272.023438 L 75.109375 311.441406 Z M 0 34.183594 "/></clipPath><clipPath id="378697dde1"><path d="M 0 34.183594 L 145.503906 -5.234375 L 220.613281 272.023438 L 75.109375 311.441406 Z M 0 34.183594 "/></clipPath><clipPath id="494bab7fe8"><path d="M 0 34.183594 L 145.503906 -5.234375 L 220.613281 272.023438 L 75.109375 311.441406 Z M 0 34.183594 "/></clipPath><clipPath id="c703add5a9"><path d="M 166 12.632812 L 220.574219 12.632812 L 220.574219 67.382812 L 166 67.382812 Z M 166 12.632812 "/></clipPath><clipPath id="e7e0f7ac4e"><path d="M 155 74.6875 L 210.316406 74.6875 L 210.316406 130 L 155 130 Z M 155 74.6875 "/></clipPath></defs><g id="400ffcefc6"><g clip-rule="nonzero" clip-path="url(#1d45527ca5)"><g clip-rule="nonzero" clip-path="url(#844862d144)"><g clip-rule="nonzero" clip-path="url(#369ca124fb)"><g clip-rule="nonzero" clip-path="url(#1c17d37ecd)"><path style=" stroke:none;fill-rule:nonzero;fill:#000000;fill-opacity:1;" d="M 156.839844 36.710938 L 176.316406 108.804688 C 176.542969 109.738281 177.046875 111.589844 177.253906 112.550781 C 177.960938 115.664062 178.5625 118.882812 178.9375 122.054688 C 179.660156 127.898438 179.695312 133.878906 178.601562 139.675781 C 177.710938 144.429688 176.054688 149.039062 173.640625 153.238281 C 170.628906 158.507812 166.425781 163.054688 162.003906 167.179688 L 155.648438 173.011719 C 149.34375 178.933594 143.617188 185.800781 140.523438 193.941406 C 139.285156 197.308594 138.488281 200.933594 138.925781 204.519531 C 139.242188 204.703125 139.539062 205 139.65625 205.34375 C 139.679688 205.417969 139.730469 205.511719 139.75 205.585938 L 141.972656 213.789062 C 141.984375 213.839844 142.007812 213.914062 142.019531 213.964844 C 142.140625 214.414062 142.207031 214.851562 142.253906 215.324219 C 142.3125 216.140625 142.273438 216.984375 141.972656 217.761719 C 141.800781 218.210938 141.535156 218.632812 141.125 218.90625 C 141.125 218.90625 141.132812 218.929688 141.132812 218.929688 C 143.996094 229.105469 151.539062 258.339844 154.761719 267.855469 C 155.496094 269.964844 156.351562 272.125 157.34375 274.109375 C 158.839844 276.953125 160.40625 280.046875 161.238281 283.121094 C 161.515625 284.148438 161.785156 285.335938 161.308594 286.351562 C 160.945312 287.09375 160.214844 287.585938 159.492188 287.996094 C 158.050781 288.738281 156.429688 289.203125 154.890625 289.671875 C 150.59375 290.890625 144.058594 292.6875 139.746094 293.75 C 138.738281 293.996094 137.664062 294.207031 136.652344 294.347656 C 135.660156 294.453125 134.578125 294.53125 133.65625 294.109375 C 132.886719 293.753906 132.425781 293.046875 132.140625 292.292969 C 131.792969 291.394531 131.558594 290.4375 131.382812 289.492188 C 131.054688 287.78125 130.84375 286.011719 130.722656 284.273438 C 130.613281 281.378906 130.398438 278.507812 129.839844 275.652344 C 128.539062 268.167969 118.855469 233.609375 116.792969 225.496094 C 116.785156 225.472656 116.785156 225.472656 116.777344 225.445312 C 116.285156 225.417969 115.847656 225.1875 115.46875 224.886719 C 114.84375 224.359375 114.355469 223.660156 113.988281 222.898438 C 113.792969 222.46875 113.628906 222.058594 113.503906 221.609375 C 113.492188 221.558594 113.472656 221.484375 113.457031 221.433594 L 111.234375 213.230469 C 111.214844 213.15625 111.1875 213.054688 111.191406 212.972656 C 111.128906 212.640625 111.234375 212.238281 111.417969 211.917969 C 109.980469 208.601562 107.46875 205.875 104.695312 203.589844 C 97.917969 198.125 89.496094 195.039062 81.070312 193.132812 L 72.640625 191.308594 C 66.71875 190.011719 60.824219 188.203125 55.554688 185.144531 C 45.960938 179.71875 39.550781 170.847656 35.269531 160.894531 C 34.015625 157.960938 32.886719 154.882812 31.953125 151.832031 C 31.605469 150.855469 31.164062 149.121094 30.867188 148.128906 L 11.390625 76.035156 C 11.363281 75.828125 11.195312 75.308594 11.140625 75.109375 C 10.292969 71.6875 9.875 68.148438 9.886719 64.628906 C 9.910156 53.1875 14.632812 41.921875 22.792969 33.910156 C 26.339844 30.425781 30.480469 27.53125 35 25.449219 C 36.644531 24.679688 38.371094 24 40.105469 23.449219 C 40.675781 23.265625 41.371094 23.050781 41.972656 22.890625 L 72.828125 14.558594 L 103.6875 6.222656 L 104.136719 6.101562 C 104.542969 6.019531 105.140625 5.832031 105.546875 5.746094 C 107.144531 5.394531 108.824219 5.128906 110.460938 4.925781 C 115.566406 4.402344 120.800781 4.757812 125.773438 6.039062 C 136.863281 8.835938 146.625 16.175781 152.394531 26.050781 C 154.183594 29.082031 155.605469 32.347656 156.601562 35.730469 C 156.675781 36.003906 156.773438 36.460938 156.839844 36.710938 Z M 156.839844 36.710938 "/></g></g></g></g><g clip-rule="nonzero" clip-path="url(#1258877166)"><g clip-rule="nonzero" clip-path="url(#9e9ba137df)"><g clip-rule="nonzero" clip-path="url(#a731184669)"><g clip-rule="nonzero" clip-path="url(#80e22e1143)"><path style=" stroke:none;fill-rule:nonzero;fill:#302e2d;fill-opacity:1;" d="M 144.667969 21.859375 C 147.125 24.578125 149.175781 27.675781 150.792969 30.96875 C 151.882812 33.195312 152.765625 35.5625 153.414062 37.960938 L 172.890625 110.054688 C 173.175781 111.105469 173.542969 112.5625 173.796875 113.597656 C 174.425781 116.324219 175 119.230469 175.375 122 C 176.21875 128.402344 176.238281 135.027344 174.753906 141.363281 C 173.914062 144.8125 172.59375 148.179688 170.851562 151.28125 C 168.132812 156.152344 164.324219 160.351562 160.277344 164.183594 C 156.863281 167.367188 151.203125 172.390625 148.167969 175.789062 C 144.707031 179.597656 141.539062 183.785156 139.144531 188.355469 C 137.507812 191.453125 136.207031 194.789062 135.578125 198.230469 C 135.15625 200.546875 135.082031 202.957031 135.394531 205.289062 L 125.871094 207.871094 L 114.835938 210.832031 C 113.984375 208.78125 112.78125 206.824219 111.351562 205.117188 C 109.429688 202.792969 107.070312 200.828125 104.609375 199.105469 C 99.820312 195.8125 94.378906 193.5 88.859375 191.800781 C 84.121094 190.292969 77.546875 188.960938 72.65625 187.894531 C 66.871094 186.589844 61.132812 184.679688 56.078125 181.511719 C 53.101562 179.660156 50.394531 177.414062 48.035156 174.859375 C 43.859375 170.273438 40.738281 164.808594 38.363281 159.117188 C 36.8125 155.375 35.527344 151.429688 34.472656 147.527344 C 34.425781 146.761719 14.929688 75.691406 14.871094 74.984375 C 14.789062 74.574219 14.613281 74.03125 14.554688 73.617188 C 14.328125 72.578125 14.132812 71.453125 13.980469 70.394531 C 13.574219 67.308594 13.527344 64.152344 13.820312 61.066406 C 14.675781 52.511719 18.417969 44.277344 24.332031 38.003906 C 27.003906 35.160156 30.125 32.675781 33.519531 30.710938 C 35.679688 29.453125 37.984375 28.425781 40.316406 27.605469 C 41.03125 27.359375 41.820312 27.089844 42.546875 26.894531 L 42.996094 26.773438 L 75.707031 17.9375 L 104.710938 10.109375 C 119.152344 6.117188 134.710938 10.730469 144.667969 21.859375 Z M 144.667969 21.859375 "/></g></g></g></g><g clip-rule="nonzero" clip-path="url(#3947110d0a)"><g clip-rule="nonzero" clip-path="url(#d75bd0acb5)"><g clip-rule="nonzero" clip-path="url(#378697dde1)"><g clip-rule="nonzero" clip-path="url(#494bab7fe8)"><path style=" stroke:none;fill-rule:nonzero;fill:#961414;fill-opacity:1;" d="M 142.371094 227.667969 L 119.117188 228.519531 L 118.304688 225.515625 L 140.179688 219.589844 Z M 144.15625 234.460938 L 120.875 235.210938 L 123.089844 243.386719 L 146.34375 242.539062 Z M 147.824219 248.5 L 124.542969 249.25 L 126.757812 257.429688 L 150.011719 256.578125 Z M 151.621094 262.503906 L 128.339844 263.253906 L 130.554688 271.433594 L 153.808594 270.585938 Z M 158.261719 281.566406 L 155.589844 276.464844 L 132.308594 277.214844 L 133.03125 285.742188 C 133.167969 289.921875 137.003906 292.960938 140.886719 291.402344 L 155.679688 287.421875 C 158.214844 286.757812 159.460938 283.898438 158.261719 281.566406 Z M 158.261719 281.566406 "/></g></g></g></g><g clip-rule="nonzero" clip-path="url(#c703add5a9)"><path style=" stroke:none;fill-rule:nonzero;fill:#caff01;fill-opacity:1;" d="M 193.632812 12.871094 C 178.644531 12.632812 166.300781 24.589844 166.0625 39.578125 C 165.824219 54.5625 177.78125 66.90625 192.769531 67.144531 C 207.757812 67.382812 220.101562 55.425781 220.339844 40.4375 C 220.574219 25.453125 208.621094 13.109375 193.632812 12.871094 Z M 195.894531 22.164062 C 198.449219 22.640625 200.257812 24.425781 199.933594 26.152344 C 199.613281 27.878906 197.285156 28.890625 194.730469 28.417969 C 192.179688 27.941406 190.367188 26.15625 190.691406 24.429688 C 191.011719 22.703125 193.34375 21.6875 195.894531 22.164062 Z M 196.859375 39.765625 C 196.863281 42.046875 194.8125 43.898438 192.28125 43.898438 C 189.75 43.902344 187.699219 42.054688 187.695312 39.773438 C 187.695312 37.492188 189.742188 35.644531 192.273438 35.640625 C 194.804688 35.640625 196.859375 37.484375 196.859375 39.765625 Z M 189.769531 14.84375 C 192.019531 14.449219 193.964844 14.820312 194.113281 15.667969 C 194.261719 16.515625 192.558594 17.523438 190.308594 17.917969 C 188.058594 18.3125 186.113281 17.941406 185.964844 17.09375 C 185.816406 16.246094 187.519531 15.238281 189.769531 14.84375 Z M 170.351562 47.1875 C 169.5 47.335938 168.5 45.65625 168.117188 43.4375 C 167.734375 41.21875 168.109375 39.300781 168.957031 39.15625 C 169.808594 39.007812 170.808594 40.6875 171.191406 42.90625 C 171.574219 45.121094 171.199219 47.039062 170.351562 47.1875 Z M 171.738281 28.84375 C 171.054688 28.320312 171.621094 26.425781 173.003906 24.609375 C 174.386719 22.792969 176.066406 21.742188 176.75 22.261719 C 177.433594 22.785156 176.871094 24.679688 175.484375 26.5 C 174.101562 28.316406 172.425781 29.363281 171.738281 28.84375 Z M 174.140625 36.042969 C 174.519531 33.476562 176.214844 31.597656 177.925781 31.851562 C 179.640625 32.105469 180.71875 34.394531 180.339844 36.960938 C 179.957031 39.53125 178.261719 41.40625 176.550781 41.15625 C 174.839844 40.902344 173.757812 38.613281 174.140625 36.042969 Z M 181.941406 61.296875 C 181.4375 61.996094 179.535156 61.484375 177.691406 60.152344 C 175.847656 58.820312 174.761719 57.175781 175.265625 56.476562 C 175.769531 55.78125 177.675781 56.292969 179.515625 57.625 C 181.359375 58.953125 182.445312 60.597656 181.941406 61.296875 Z M 187.363281 58.289062 C 184.855469 57.609375 183.199219 55.683594 183.65625 53.988281 C 184.117188 52.292969 186.523438 51.46875 189.027344 52.148438 C 191.535156 52.832031 193.191406 54.753906 192.734375 56.449219 C 192.273438 58.144531 189.867188 58.96875 187.363281 58.289062 Z M 196.433594 65.21875 C 194.207031 65.546875 192.296875 65.125 192.171875 64.273438 C 192.042969 63.421875 193.746094 62.460938 195.972656 62.132812 C 198.199219 61.800781 200.105469 62.222656 200.234375 63.074219 C 200.359375 63.925781 198.660156 64.886719 196.433594 65.21875 Z M 204.722656 18.855469 C 205.253906 18.175781 207.121094 18.75 208.894531 20.136719 C 210.667969 21.527344 211.671875 23.199219 211.140625 23.878906 C 210.613281 24.558594 208.742188 23.980469 206.972656 22.59375 C 205.199219 21.207031 204.191406 19.53125 204.722656 18.855469 Z M 206.890625 49.308594 C 205.199219 48.992188 204.210938 46.699219 204.679688 44.183594 C 205.148438 41.664062 206.898438 39.878906 208.585938 40.195312 C 210.273438 40.507812 211.261719 42.804688 210.796875 45.320312 C 210.328125 47.835938 208.578125 49.621094 206.890625 49.308594 Z M 213.113281 55.304688 C 211.78125 57.136719 210.132812 58.214844 209.4375 57.707031 C 208.742188 57.199219 209.257812 55.304688 210.589844 53.46875 C 211.921875 51.636719 213.566406 50.558594 214.265625 51.066406 C 214.960938 51.570312 214.445312 53.46875 213.113281 55.304688 Z M 217.386719 41.160156 C 216.535156 41.289062 215.570312 39.59375 215.230469 37.367188 C 214.890625 35.140625 215.304688 33.234375 216.15625 33.101562 C 217.007812 32.972656 217.972656 34.671875 218.3125 36.894531 C 218.652344 39.121094 218.238281 41.03125 217.386719 41.160156 Z M 217.386719 41.160156 "/></g><g clip-rule="nonzero" clip-path="url(#e7e0f7ac4e)"><path style=" stroke:none;fill-rule:nonzero;fill:#caff01;fill-opacity:1;" d="M 183.003906 74.929688 C 167.8125 74.6875 155.300781 86.808594 155.058594 102 C 154.816406 117.191406 166.9375 129.707031 182.128906 129.945312 C 197.320312 130.1875 209.835938 118.066406 210.074219 102.875 C 210.316406 87.683594 198.195312 75.171875 183.003906 74.929688 Z M 185.296875 84.351562 C 187.886719 84.832031 189.71875 86.640625 189.394531 88.390625 C 189.066406 90.140625 186.707031 91.171875 184.117188 90.6875 C 181.53125 90.207031 179.695312 88.398438 180.023438 86.648438 C 180.347656 84.898438 182.710938 83.867188 185.296875 84.351562 Z M 186.277344 102.191406 C 186.277344 104.503906 184.199219 106.378906 181.636719 106.382812 C 179.070312 106.386719 176.988281 104.511719 176.988281 102.203125 C 176.984375 99.890625 179.0625 98.011719 181.628906 98.011719 C 184.191406 98.007812 186.273438 99.882812 186.277344 102.191406 Z M 179.089844 76.929688 C 181.371094 76.53125 183.34375 76.90625 183.492188 77.765625 C 183.644531 78.625 181.914062 79.644531 179.632812 80.046875 C 177.351562 80.445312 175.382812 80.070312 175.230469 79.210938 C 175.082031 78.351562 176.808594 77.328125 179.089844 76.929688 Z M 159.402344 109.714844 C 158.542969 109.863281 157.527344 108.164062 157.140625 105.914062 C 156.75 103.667969 157.132812 101.722656 157.992188 101.574219 C 158.851562 101.425781 159.867188 103.125 160.253906 105.375 C 160.644531 107.625 160.261719 109.566406 159.402344 109.714844 Z M 160.8125 91.121094 C 160.117188 90.589844 160.691406 88.667969 162.09375 86.828125 C 163.496094 84.984375 165.195312 83.921875 165.890625 84.449219 C 166.585938 84.980469 166.011719 86.902344 164.609375 88.742188 C 163.207031 90.585938 161.507812 91.648438 160.8125 91.121094 Z M 163.242188 98.421875 C 163.628906 95.816406 165.347656 93.914062 167.082031 94.171875 C 168.820312 94.425781 169.914062 96.746094 169.527344 99.351562 C 169.144531 101.953125 167.421875 103.855469 165.6875 103.601562 C 163.953125 103.34375 162.859375 101.023438 163.242188 98.421875 Z M 171.152344 124.019531 C 170.640625 124.726562 168.714844 124.207031 166.84375 122.859375 C 164.976562 121.507812 163.875 119.839844 164.386719 119.132812 C 164.898438 118.425781 166.828125 118.945312 168.695312 120.292969 C 170.566406 121.644531 171.664062 123.3125 171.152344 124.019531 Z M 176.648438 120.96875 C 174.109375 120.28125 172.425781 118.328125 172.890625 116.609375 C 173.359375 114.890625 175.796875 114.058594 178.335938 114.746094 C 180.875 115.4375 182.558594 117.386719 182.09375 119.105469 C 181.625 120.824219 179.1875 121.65625 176.648438 120.96875 Z M 185.84375 127.992188 C 183.585938 128.328125 181.652344 127.898438 181.523438 127.035156 C 181.394531 126.171875 183.121094 125.199219 185.378906 124.863281 C 187.632812 124.527344 189.566406 124.957031 189.695312 125.820312 C 189.824219 126.683594 188.097656 127.65625 185.84375 127.992188 Z M 194.246094 80.996094 C 194.785156 80.308594 196.679688 80.890625 198.476562 82.296875 C 200.273438 83.703125 201.292969 85.398438 200.753906 86.085938 C 200.214844 86.777344 198.324219 86.191406 196.527344 84.785156 C 194.730469 83.378906 193.710938 81.683594 194.246094 80.996094 Z M 196.441406 111.867188 C 194.730469 111.546875 193.730469 109.21875 194.203125 106.667969 C 194.679688 104.117188 196.453125 102.308594 198.164062 102.625 C 199.875 102.945312 200.875 105.273438 200.402344 107.824219 C 199.925781 110.375 198.15625 112.183594 196.441406 111.867188 Z M 202.75 117.941406 C 201.398438 119.800781 199.730469 120.894531 199.027344 120.378906 C 198.320312 119.867188 198.84375 117.941406 200.195312 116.082031 C 201.546875 114.222656 203.214844 113.132812 203.917969 113.648438 C 204.625 114.160156 204.101562 116.082031 202.75 117.941406 Z M 207.085938 103.605469 C 206.222656 103.738281 205.242188 102.015625 204.898438 99.761719 C 204.554688 97.507812 204.972656 95.570312 205.835938 95.4375 C 206.699219 95.304688 207.679688 97.027344 208.023438 99.285156 C 208.367188 101.539062 207.949219 103.472656 207.085938 103.605469 Z M 207.085938 103.605469 "/></g></g></svg>